<svg width="179" height="179" viewBox="0 0 179 179" fill="none" xmlns="http://www.w3.org/2000/svg">
<path d="M148.57 36.8739C139.262 29.7139 128.522 25.4179 117.782 23.6279C100.956 54.7739 112.054 91.6479 111.696 124.226C112.77 136.04 104.894 143.916 95.9438 151.434C119.214 156.088 143.916 147.854 159.668 127.806C181.864 100.24 176.852 59.0699 148.57 36.8739Z" fill="white" stroke="#545388" stroke-width="0.5" stroke-miterlimit="10"/>
<path d="M117.424 22.912C117.066 23.628 117.424 24.344 117.066 25.06C151.076 29.714 175.778 60.86 171.84 95.586C167.902 130.67 136.398 156.088 101.314 152.15C99.8819 152.15 98.4499 151.792 97.0179 151.434C96.3019 152.15 94.8699 152.15 93.7959 152.866C95.9439 153.224 98.8079 153.94 100.956 154.298C137.114 158.236 170.05 132.102 173.988 95.944C178.284 60.144 152.508 28.282 117.424 22.912Z" fill="#545388"/>
<path d="M165.754 94.512C169.334 62.65 146.422 34.368 114.918 30.788H114.56C114.202 31.504 113.844 32.22 113.844 32.936C114.202 32.936 114.56 32.936 114.918 32.936C145.348 36.516 167.186 63.724 163.964 94.154C160.742 123.868 134.608 145.348 105.252 143.2C104.536 143.916 103.82 144.632 103.462 145.348C134.25 148.57 162.174 126.016 165.754 94.512Z" fill="#545388"/>
<path fill-rule="evenodd" clip-rule="evenodd" d="M109.548 50.8359C109.548 51.5519 109.548 52.2679 109.19 52.9839L140.694 58.3539L139.262 70.8839L119.214 68.0199L116.708 90.2159L118.856 90.5739L121.004 70.5259L141.052 73.3899L142.842 56.2059L109.548 50.8359Z" fill="#545388"/>
<path fill-rule="evenodd" clip-rule="evenodd" d="M119.93 85.92H117.782L116.35 98.092C115.992 102.388 114.202 105.968 111.338 109.19C111.338 110.264 111.338 111.338 111.338 112.054C115.276 108.474 117.782 103.82 118.498 98.45L119.93 85.92Z" fill="#545388"/>
<path d="M108.474 61.934C108.116 67.304 108.474 72.316 108.832 77.686L112.412 78.044L110.264 97.018C110.264 98.092 110.264 98.808 110.622 99.882L126.016 100.956L128.164 80.192L147.496 82.698L149.286 68.02L108.474 61.934Z" fill="#545388"/>
<path d="M110.622 95.228L110.264 97.018C110.98 106.326 111.696 115.634 111.696 124.226C111.696 124.584 111.696 124.942 111.696 125.658C118.856 122.436 124.226 115.992 125.3 108.474L126.732 96.302L110.622 95.228Z" fill="#545388"/>
<path d="M83.414 82.6979C78.044 65.5139 73.748 47.6139 76.97 29.7139L76.254 23.6279C73.748 23.6279 66.23 24.7019 63.724 25.0599C27.924 29.7139 2.86398 61.9339 7.15998 97.7339C11.456 133.176 44.034 158.594 79.476 153.94C80.908 153.94 83.772 153.582 86.636 153.224C88.426 151.076 89.858 148.57 91.29 146.422L83.414 82.6979Z" fill="#C6C2D8"/>
<path fill-rule="evenodd" clip-rule="evenodd" d="M85.5619 152.15C84.4879 152.15 83.4139 152.508 82.3399 152.508C80.9079 152.508 79.8339 152.866 79.1179 152.866C44.3919 157.162 12.5299 132.46 8.23391 97.376C3.93791 62.65 28.6399 30.788 63.7239 26.492C64.4399 26.492 65.5139 26.134 66.9459 26.134C68.0199 26.134 69.0939 25.776 70.1679 25.776C72.6739 25.418 75.1799 25.06 76.2539 25.06V22.912C74.8219 22.912 72.3159 23.27 69.8099 23.628C68.7359 23.628 67.6619 23.986 66.5879 23.986C65.5139 24.344 64.4399 24.344 63.7239 24.344C27.2079 28.64 1.78991 61.576 6.08591 97.734C10.7399 133.892 43.3179 159.668 79.4759 155.014C80.1919 155.014 81.2659 154.656 82.3399 154.656C83.4139 154.656 85.5619 153.94 86.6359 153.94C87.3519 153.224 85.5619 153.94 86.2779 152.866C85.9199 152.866 86.2779 152.15 85.5619 152.15Z" fill="#545388"/>
<path fill-rule="evenodd" clip-rule="evenodd" d="M7.87598 77.328L19.69 75.896L20.406 78.76L8.59198 80.192L7.87598 77.328Z" fill="#545388"/>
<path fill-rule="evenodd" clip-rule="evenodd" d="M7.15991 95.944L19.6899 94.512L20.0479 97.376L7.51791 98.808L7.15991 95.944Z" fill="#545388"/>
<path fill-rule="evenodd" clip-rule="evenodd" d="M11.814 114.202L24.344 112.77L24.702 115.634L12.172 117.066L11.814 114.202Z" fill="#545388"/>
<path fill-rule="evenodd" clip-rule="evenodd" d="M21.48 129.238L34.01 127.806L34.368 130.67L21.838 132.46L21.48 129.238Z" fill="#545388"/>
<path fill-rule="evenodd" clip-rule="evenodd" d="M46.1819 147.496L58.7119 146.064L59.0699 148.928L46.5399 150.36L46.1819 147.496Z" fill="#545388"/>
<path fill-rule="evenodd" clip-rule="evenodd" d="M32.5779 139.62L45.1079 138.188L45.4659 141.052L32.9359 142.484L32.5779 139.62Z" fill="#545388"/>
<path fill-rule="evenodd" clip-rule="evenodd" d="M12.5298 60.5019L25.0598 58.7119L25.4178 61.5759L12.8878 63.0079L12.5298 60.5019Z" fill="#545388"/>
<path fill-rule="evenodd" clip-rule="evenodd" d="M31.8618 36.8739L44.3918 35.4419L44.7498 38.3059L32.2198 39.7379L31.8618 36.8739Z" fill="#545388"/>
<path fill-rule="evenodd" clip-rule="evenodd" d="M20.7639 47.614L33.2939 46.182L33.6519 49.046L21.1219 50.478L20.7639 47.614Z" fill="#545388"/>
<path d="M95.586 122.794C88.426 90.9319 68.02 57.6379 76.97 23.6279C54.774 25.4179 35.084 39.0219 25.06 60.8599C10.024 93.4379 24.344 132.102 56.922 147.138C66.588 151.434 76.612 153.224 86.636 152.866C93.438 143.558 99.166 133.892 95.586 122.794Z" fill="white" stroke="#545388" stroke-width="0.5" stroke-miterlimit="10"/>
<path d="M20.764 95.944C16.468 60.86 41.17 28.998 76.254 24.702C76.97 24.702 76.97 24.702 77.328 24.702C77.686 23.986 78.402 23.27 78.402 22.554C77.686 22.554 76.612 22.554 75.896 22.912C39.738 26.85 13.962 59.7859 18.258 96.3019C22.554 130.312 51.91 155.372 85.562 154.298C86.278 153.582 86.636 152.866 87.352 151.792C54.416 153.582 24.702 129.238 20.764 95.944Z" fill="#545388"/>
<path d="M90.932 143.2C60.502 146.78 32.578 125.3 28.998 94.87C25.06 64.798 46.54 37.232 76.254 33.294C76.254 32.578 76.612 31.862 76.612 31.146C45.108 35.084 22.912 64.082 26.85 95.586C30.788 127.09 59.428 149.644 91.29 145.706C91.648 145.706 91.648 145.706 92.006 145.706C92.364 144.99 93.08 143.916 93.438 143.2C92.364 142.842 91.648 142.842 90.932 143.2Z" fill="#545388"/>
<path fill-rule="evenodd" clip-rule="evenodd" d="M49.0459 53.3419L51.1939 71.9579L73.7479 69.8099L76.2539 90.9319L78.4019 90.5739L75.5379 67.6619L52.9839 69.8099L51.1939 55.8479L76.2539 54.0579C76.2539 53.3419 75.8959 52.6259 75.8959 51.9099L49.0459 53.3419Z" fill="#545388"/>
<path fill-rule="evenodd" clip-rule="evenodd" d="M74.8218 119.214C64.0818 121.004 54.4158 115.634 50.8358 107.042L65.5138 101.314C66.5878 104.178 69.8098 106.326 73.3898 105.61C77.3278 104.894 80.1918 101.672 79.4758 98.0919L78.0438 85.9199H75.8958L77.3278 98.0919C77.6858 100.598 75.8958 102.746 73.0318 103.104C70.1678 103.462 67.6618 101.672 67.6618 99.1659V97.7339L48.3298 105.252L48.6878 106.326C52.2678 116.708 63.7238 123.152 75.5378 121.004C82.6978 119.93 88.7838 115.634 92.3638 110.264C92.0058 109.19 91.6478 108.474 91.6478 107.4C88.4258 113.486 82.3398 117.782 74.8218 119.214Z" fill="#545388"/>
<path d="M61.5759 63.7239L63.7239 79.8339L81.9819 78.0439C80.5499 73.0319 79.1179 67.6619 78.0439 62.6499L61.5759 63.7239Z" fill="#545388"/>
<path d="M88.068 99.166H88.784C88.426 98.092 88.068 97.376 87.71 96.302L88.068 99.166Z" fill="#545388"/>
<path d="M87.7099 96.302L88.7839 106.326C89.1419 109.19 86.9939 112.054 83.7719 112.77C80.5499 113.486 77.6859 111.338 77.3279 108.116L60.8599 114.918C64.4399 124.584 74.8219 130.312 85.9199 128.522C89.4999 127.806 93.0799 126.374 95.9439 124.226C95.9439 123.868 95.5859 123.51 95.5859 122.794C93.4379 113.844 90.5739 105.252 87.7099 96.302Z" fill="#545388"/>
</svg>
