<svg width="179" height="179" viewBox="0 0 179 179" fill="none" xmlns="http://www.w3.org/2000/svg">
<g clip-path="url(#clip0_816_694)">
<path d="M131.744 31.5041C121.362 25.7761 110.264 23.2701 99.1659 22.9121C87.3519 56.2061 103.82 90.9321 108.474 123.152C111.338 134.608 104.894 143.558 97.0179 152.508C120.646 153.582 143.916 141.768 156.446 119.572C174.346 89.1421 163.248 49.0461 131.744 31.5041Z" fill="white" stroke="#545388" stroke-width="0.5" stroke-miterlimit="10"/>
<path d="M99.1659 22.196C98.8079 22.912 99.5239 23.628 99.1659 24.344C133.534 23.628 162.532 50.836 163.964 85.562C165.396 121.004 138.188 150.718 102.746 152.15C101.314 152.508 99.8819 152.15 98.4499 152.15C97.7339 152.866 96.3019 153.224 95.5859 153.94C97.7339 153.94 100.598 154.298 102.746 154.298C138.904 152.866 167.544 121.72 166.112 85.562C164.68 49.762 134.608 22.196 99.1659 22.196Z" fill="#545388"/>
<path d="M157.52 85.92C156.446 53.7 129.238 29.356 97.7338 30.43H97.3758C97.0178 31.146 97.0178 31.862 97.0178 32.578C97.3758 32.578 97.7338 32.578 98.0918 32.578C128.88 31.504 154.298 55.132 155.73 85.562C157.162 115.276 134.608 140.694 105.252 142.842C104.536 143.558 104.178 144.632 103.82 145.348C134.608 143.916 158.952 117.424 157.52 85.92Z" fill="#545388"/>
<path fill-rule="evenodd" clip-rule="evenodd" d="M95.5859 51.1941C95.5859 51.9101 95.9439 52.6261 95.5859 53.3421L127.448 53.7001L127.806 66.2301L107.4 66.5881L108.116 88.7841H110.264L109.19 68.7361L129.596 68.3781L128.88 51.1941H95.5859Z" fill="#545388"/>
<path fill-rule="evenodd" clip-rule="evenodd" d="M110.98 84.1301L108.832 84.4881L109.19 96.6601C109.548 100.956 108.116 104.894 105.968 108.474C105.968 109.548 106.326 110.622 106.326 111.338C109.548 107.042 111.338 102.388 111.338 96.6601L110.98 84.1301Z" fill="#545388"/>
<path d="M95.9438 62.292C96.3018 67.662 97.3759 72.674 98.8079 77.686L102.388 77.328L103.104 96.302C103.104 97.376 103.462 98.092 103.82 99.166L119.214 97.734L118.14 77.328L137.472 76.97L137.114 62.292H95.9438Z" fill="#545388"/>
<path d="M103.104 94.8701V96.6601C105.252 105.61 107.4 114.918 108.474 123.51C108.474 123.868 108.474 124.226 108.832 124.942C115.276 120.646 119.572 113.486 119.572 105.968L119.214 93.7961L103.104 94.8701Z" fill="#545388"/>
<path d="M91.2901 82.6979C87.3521 65.1559 84.8461 46.8979 89.5001 29.3559V23.2699C86.9941 22.9119 79.4761 23.2699 76.9701 23.6279C40.8121 24.7019 12.8881 54.7739 13.9621 90.5739C15.0361 126.374 45.1081 154.656 80.9081 153.224C82.3401 153.224 85.2041 153.224 88.0681 153.224C90.2161 151.076 91.6481 148.928 93.4381 146.78L91.2901 82.6979Z" fill="#C6C2D8"/>
<path fill-rule="evenodd" clip-rule="evenodd" d="M87.352 151.792C86.278 151.792 85.204 151.792 84.13 151.792C82.698 151.792 81.624 151.792 80.908 151.792C45.824 152.866 16.468 125.3 15.394 90.2158C14.32 55.1318 41.886 25.7758 76.97 24.7018C77.686 24.7018 78.76 24.3438 80.192 24.7018C81.266 24.7018 82.34 24.7018 83.414 24.7018C85.92 24.7018 88.426 24.3438 89.5 24.7018V22.1958C88.068 22.1958 85.562 22.1958 83.056 22.1958C81.982 22.1958 80.908 22.1958 79.834 22.1958C78.76 22.5538 77.686 22.1958 76.97 22.1958C40.096 23.2698 11.814 53.6998 12.888 90.2158C14.32 126.732 44.392 155.372 80.908 153.94C81.624 153.94 82.698 153.582 83.772 153.94C84.846 153.94 86.994 153.582 88.068 153.582C88.784 152.866 86.994 153.582 87.71 152.508C87.352 152.508 88.068 152.15 87.352 151.792Z" fill="#545388"/>
<path fill-rule="evenodd" clip-rule="evenodd" d="M16.468 70.526L28.64 70.168L28.998 73.032L17.184 73.39L16.468 70.526Z" fill="#545388"/>
<path fill-rule="evenodd" clip-rule="evenodd" d="M14.3201 88.7838L26.8501 88.4258V91.2898L14.3201 91.6478V88.7838Z" fill="#545388"/>
<path fill-rule="evenodd" clip-rule="evenodd" d="M17.1841 107.4L29.7141 107.042V109.906L17.1841 110.264V107.4Z" fill="#545388"/>
<path fill-rule="evenodd" clip-rule="evenodd" d="M25.418 123.152L37.948 122.794V125.658L25.418 126.374V123.152Z" fill="#545388"/>
<path fill-rule="evenodd" clip-rule="evenodd" d="M48.3301 143.558L60.8601 143.2V146.064L48.3301 146.78V143.558Z" fill="#545388"/>
<path fill-rule="evenodd" clip-rule="evenodd" d="M35.4419 134.608L47.9719 134.25V137.114L35.7999 137.472L35.4419 134.608Z" fill="#545388"/>
<path fill-rule="evenodd" clip-rule="evenodd" d="M22.9121 54.0578L35.4421 53.3418V56.2058L22.9121 56.5638V54.0578Z" fill="#545388"/>
<path fill-rule="evenodd" clip-rule="evenodd" d="M44.0339 32.2198L56.5639 31.8618V34.7258L44.0339 35.0838V32.2198Z" fill="#545388"/>
<path fill-rule="evenodd" clip-rule="evenodd" d="M32.22 41.8858L44.75 41.5278V44.3918L32.22 44.7498V41.8858Z" fill="#545388"/>
<path d="M99.8819 123.51C95.5859 91.29 78.4019 56.206 90.2159 22.912C68.0199 22.554 47.2559 34.368 35.0839 55.132C17.1839 86.278 27.9239 126.016 59.0699 143.916C68.3779 148.928 78.0439 151.792 88.0679 152.15C95.9439 143.916 102.388 134.966 99.8819 123.51Z" fill="white" stroke="#545388" stroke-width="0.5" stroke-miterlimit="10"/>
<path d="M27.924 90.2159C26.492 54.7739 54.058 25.4179 89.5 23.9859C90.216 23.9859 90.216 23.9859 90.574 23.9859C90.932 23.2699 91.648 22.5539 92.006 21.8379C91.29 21.8379 90.216 21.8379 89.5 21.8379C52.984 22.9119 24.344 53.3419 25.06 90.2159C26.134 124.584 53.342 152.15 86.994 153.94C87.71 153.224 88.068 152.508 89.142 151.434C56.206 150.36 28.64 123.51 27.924 90.2159Z" fill="#545388"/>
<path d="M93.438 143.558C62.65 144.274 36.8741 120.288 36.1581 89.8579C34.7261 59.4279 58.712 34.0099 88.784 32.5779C88.784 31.8619 89.142 31.1459 89.5 30.4299C57.6381 31.5039 32.9361 58.7119 34.0101 90.2159C35.0841 121.72 61.5761 147.138 93.7961 146.064C94.1541 146.064 94.154 146.064 94.512 146.064C94.87 145.348 95.586 144.274 96.302 143.558C94.87 143.2 94.154 143.2 93.438 143.558Z" fill="#545388"/>
<path fill-rule="evenodd" clip-rule="evenodd" d="M59.7859 50.1199L60.1439 68.7359H82.6979L83.4139 89.8579H85.5619L84.8459 66.9459H62.2919L61.9339 52.9839L86.9939 53.3419C86.9939 52.6259 86.6359 51.9099 86.9939 51.1939L59.7859 50.1199Z" fill="#545388"/>
<path fill-rule="evenodd" clip-rule="evenodd" d="M79.4761 118.14C68.7361 118.856 59.4281 112.77 56.5641 103.82L71.6001 99.5239C72.3161 102.388 75.5381 104.894 79.1181 104.536C83.0561 104.178 86.2781 101.314 85.9201 97.7339L85.5621 85.5619L83.4141 85.2039L83.7721 97.3759C83.7721 99.8819 81.9821 102.03 79.1181 102.03C76.2541 102.03 73.7481 100.24 74.1061 97.7339V96.3019L54.0581 102.03L54.4161 103.104C56.9221 113.844 68.0201 121.362 79.8341 120.288C86.9941 119.93 93.4381 115.992 97.7341 110.98C97.3761 109.906 97.0181 109.19 97.3761 108.116C93.4381 113.844 86.9941 117.424 79.4761 118.14Z" fill="#545388"/>
<path d="M71.2419 61.5759L71.9579 77.6859H90.2159C89.1419 72.6739 88.4259 66.9459 87.7099 61.9339L71.2419 61.5759Z" fill="#545388"/>
<path d="M94.512 99.5239H95.228C94.87 98.4499 94.512 97.7339 94.512 96.6599V99.5239Z" fill="#545388"/>
<path d="M94.5119 96.6599V106.684C94.5119 109.548 92.3639 112.054 88.7839 112.77C85.5619 113.128 82.6979 110.622 82.6979 107.4L65.5139 112.77C68.3779 122.794 78.0439 129.238 89.1419 128.522C92.7219 128.164 96.3019 127.09 99.5239 125.3C99.5239 124.942 99.1659 124.584 99.1659 123.868C98.4499 114.56 96.3019 105.61 94.5119 96.6599Z" fill="#545388"/>
<path d="M141.188 60.5751L59.3445 46.4224L55.7453 67.236L137.589 81.3887L141.188 60.5751Z" fill="white" stroke="#545388" stroke-width="0.75" stroke-miterlimit="10"/>
<path d="M137.635 90.3816L55.0024 98.7703L57.1358 119.785L139.768 111.396L137.635 90.3816Z" fill="white" stroke="#545388" stroke-width="0.75" stroke-miterlimit="10"/>
<path d="M64.44 54.0579C65.0331 54.0579 65.514 53.5771 65.514 52.9839C65.514 52.3908 65.0331 51.9099 64.44 51.9099C63.8468 51.9099 63.366 52.3908 63.366 52.9839C63.366 53.5771 63.8468 54.0579 64.44 54.0579Z" fill="#545388" stroke="#545388" stroke-width="0.5" stroke-miterlimit="10"/>
<path d="M62.6499 63.366C63.2431 63.366 63.7239 62.8852 63.7239 62.292C63.7239 61.6989 63.2431 61.218 62.6499 61.218C62.0568 61.218 61.5759 61.6989 61.5759 62.292C61.5759 62.8852 62.0568 63.366 62.6499 63.366Z" fill="#545388" stroke="#545388" stroke-width="0.5" stroke-miterlimit="10"/>
<path d="M134.608 66.23C135.201 66.23 135.682 65.7492 135.682 65.156C135.682 64.5629 135.201 64.082 134.608 64.082C134.015 64.082 133.534 64.5629 133.534 65.156C133.534 65.7492 134.015 66.23 134.608 66.23Z" fill="#545388" stroke="#545388" stroke-width="0.5" stroke-miterlimit="10"/>
<path d="M132.818 75.5379C133.411 75.5379 133.892 75.057 133.892 74.4639C133.892 73.8707 133.411 73.3899 132.818 73.3899C132.225 73.3899 131.744 73.8707 131.744 74.4639C131.744 75.057 132.225 75.5379 132.818 75.5379Z" fill="#545388" stroke="#545388" stroke-width="0.5" stroke-miterlimit="10"/>
<path d="M61.9341 105.252C62.5273 105.252 63.0081 104.771 63.0081 104.178C63.0081 103.585 62.5273 103.104 61.9341 103.104C61.341 103.104 60.8601 103.585 60.8601 104.178C60.8601 104.771 61.341 105.252 61.9341 105.252Z" fill="#545388" stroke="#545388" stroke-width="0.5" stroke-miterlimit="10"/>
<path d="M62.6499 114.56C63.2431 114.56 63.7239 114.079 63.7239 113.486C63.7239 112.893 63.2431 112.412 62.6499 112.412C62.0568 112.412 61.5759 112.893 61.5759 113.486C61.5759 114.079 62.0568 114.56 62.6499 114.56Z" fill="#545388" stroke="#545388" stroke-width="0.5" stroke-miterlimit="10"/>
<path d="M132.818 97.7339C133.411 97.7339 133.892 97.2531 133.892 96.6599C133.892 96.0668 133.411 95.5859 132.818 95.5859C132.225 95.5859 131.744 96.0668 131.744 96.6599C131.744 97.2531 132.225 97.7339 132.818 97.7339Z" fill="#545388" stroke="#545388" stroke-width="0.5" stroke-miterlimit="10"/>
<path d="M133.534 107.042C134.127 107.042 134.608 106.561 134.608 105.968C134.608 105.375 134.127 104.894 133.534 104.894C132.941 104.894 132.46 105.375 132.46 105.968C132.46 106.561 132.941 107.042 133.534 107.042Z" fill="#545388" stroke="#545388" stroke-width="0.5" stroke-miterlimit="10"/>
</g>
<defs>
<clipPath id="clip0_816_694">
<rect width="179" height="179" fill="white"/>
</clipPath>
</defs>
</svg>
