<svg width="23" height="23" viewBox="0 0 23 23" fill="none" xmlns="http://www.w3.org/2000/svg">
<mask id="mask0_2192_1265" style="mask-type:alpha" maskUnits="userSpaceOnUse" x="0" y="0" width="23" height="23">
<rect width="23" height="23" fill="#D9D9D9"/>
</mask>
<g mask="url(#mask0_2192_1265)">
<path d="M5.60627 16.3875C6.42085 15.7645 7.33127 15.2732 8.33752 14.9135C9.34377 14.5545 10.3979 14.375 11.5 14.375C12.6021 14.375 13.6563 14.5545 14.6625 14.9135C15.6688 15.2732 16.5792 15.7645 17.3938 16.3875C17.9528 15.7326 18.3882 14.9899 18.7 14.1593C19.0111 13.3288 19.1667 12.4423 19.1667 11.5C19.1667 9.37565 18.4201 7.56664 16.9271 6.07292C15.4333 4.57983 13.6243 3.83329 11.5 3.83329C9.37571 3.83329 7.56702 4.57983 6.07394 6.07292C4.58021 7.56664 3.83335 9.37565 3.83335 11.5C3.83335 12.4423 3.98924 13.3288 4.30102 14.1593C4.61216 14.9899 5.04724 15.7326 5.60627 16.3875ZM11.5 12.4583C10.5577 12.4583 9.76288 12.135 9.11569 11.4885C8.46913 10.8413 8.14585 10.0465 8.14585 9.10413C8.14585 8.16176 8.46913 7.36699 9.11569 6.71979C9.76288 6.07324 10.5577 5.74996 11.5 5.74996C12.4424 5.74996 13.2372 6.07324 13.8844 6.71979C14.5309 7.36699 14.8542 8.16176 14.8542 9.10413C14.8542 10.0465 14.5309 10.8413 13.8844 11.4885C13.2372 12.135 12.4424 12.4583 11.5 12.4583ZM11.5 21.0833C10.1743 21.0833 8.92849 20.8316 7.76252 20.3281C6.59655 19.8253 5.58231 19.1427 4.71981 18.2802C3.85731 17.4177 3.17466 16.4034 2.67185 15.2375C2.16841 14.0715 1.91669 12.8257 1.91669 11.5C1.91669 10.1743 2.16841 8.92843 2.67185 7.76246C3.17466 6.59649 3.85731 5.58225 4.71981 4.71975C5.58231 3.85725 6.59655 3.17428 7.76252 2.67083C8.92849 2.16803 10.1743 1.91663 11.5 1.91663C12.8257 1.91663 14.0715 2.16803 15.2375 2.67083C16.4035 3.17428 17.4177 3.85725 18.2802 4.71975C19.1427 5.58225 19.8254 6.59649 20.3282 7.76246C20.8316 8.92843 21.0834 10.1743 21.0834 11.5C21.0834 12.8257 20.8316 14.0715 20.3282 15.2375C19.8254 16.4034 19.1427 17.4177 18.2802 18.2802C17.4177 19.1427 16.4035 19.8253 15.2375 20.3281C14.0715 20.8316 12.8257 21.0833 11.5 21.0833Z" fill="white"/>
</g>
</svg>
