<svg width="23" height="23" viewBox="0 0 23 23" fill="none" xmlns="http://www.w3.org/2000/svg">
<mask id="mask0_2192_1271" style="mask-type:alpha" maskUnits="userSpaceOnUse" x="0" y="0" width="23" height="23">
<rect width="23" height="23" transform="matrix(-1 0 0 1 23 0)" fill="#D9D9D9"/>
</mask>
<g mask="url(#mask0_2192_1271)">
<path d="M21.0833 21.0833V3.83329C21.0833 3.30621 20.8956 2.85499 20.5203 2.47965C20.1449 2.1043 19.6937 1.91663 19.1666 1.91663H3.83331C3.30623 1.91663 2.85501 2.1043 2.47967 2.47965C2.10432 2.85499 1.91665 3.30621 1.91665 3.83329V15.3333C1.91665 15.8604 2.10432 16.3116 2.47967 16.6869C2.85501 17.0623 3.30623 17.25 3.83331 17.25H17.25L21.0833 21.0833ZM19.1666 16.4593L18.0406 15.3333H3.83331V3.83329H19.1666V16.4593Z" fill="white"/>
</g>
</svg>
