<svg width="20" height="20" viewBox="0 0 20 20" fill="none" xmlns="http://www.w3.org/2000/svg">
<mask id="mask0_1506_2075" style="mask-type:alpha" maskUnits="userSpaceOnUse" x="0" y="0" width="20" height="20">
<rect width="20" height="20" fill="#D9D9D9"/>
</mask>
<g mask="url(#mask0_1506_2075)">
<path d="M9.99992 10.0001C10.4583 10.0001 10.8508 9.83675 11.1774 9.51008C11.5035 9.18397 11.6666 8.79175 11.6666 8.33341C11.6666 7.87508 11.5035 7.48258 11.1774 7.15591C10.8508 6.8298 10.4583 6.66675 9.99992 6.66675C9.54158 6.66675 9.14936 6.8298 8.82325 7.15591C8.49659 7.48258 8.33325 7.87508 8.33325 8.33341C8.33325 8.79175 8.49659 9.18397 8.82325 9.51008C9.14936 9.83675 9.54158 10.0001 9.99992 10.0001ZM9.99992 16.1251C11.6944 14.5695 12.9513 13.1562 13.7708 11.8851C14.5902 10.6145 14.9999 9.48619 14.9999 8.50008C14.9999 6.98619 14.5171 5.74647 13.5516 4.78091C12.5866 3.81591 11.4027 3.33341 9.99992 3.33341C8.59714 3.33341 7.41297 3.81591 6.44742 4.78091C5.48242 5.74647 4.99992 6.98619 4.99992 8.50008C4.99992 9.48619 5.40964 10.6145 6.22909 11.8851C7.04853 13.1562 8.30547 14.5695 9.99992 16.1251ZM9.99992 18.3334C7.76381 16.4306 6.09381 14.6631 4.98992 13.0309C3.88547 11.3992 3.33325 9.88897 3.33325 8.50008C3.33325 6.41675 4.00353 4.75703 5.34409 3.52091C6.68409 2.2848 8.23603 1.66675 9.99992 1.66675C11.7638 1.66675 13.3158 2.2848 14.6558 3.52091C15.9963 4.75703 16.6666 6.41675 16.6666 8.50008C16.6666 9.88897 16.1146 11.3992 15.0108 13.0309C13.9063 14.6631 12.236 16.4306 9.99992 18.3334Z" fill="#604D9E"/>
</g>
</svg>
