<svg width="23" height="23" viewBox="0 0 23 23" fill="none" xmlns="http://www.w3.org/2000/svg">
<mask id="mask0_2192_1268" style="mask-type:alpha" maskUnits="userSpaceOnUse" x="0" y="0" width="23" height="23">
<rect width="23" height="23" fill="#D9D9D9"/>
</mask>
<g mask="url(#mask0_2192_1268)">
<path d="M3.49774 18.376V16.1958H5.48628V9.70313C5.48628 8.32952 5.89773 7.10349 6.72062 6.02505C7.54287 4.94724 8.60885 4.24063 9.91858 3.90522V3.25834C9.91858 2.82709 10.0745 2.45973 10.3862 2.15626C10.6974 1.85279 11.0686 1.70105 11.4998 1.70105C11.9311 1.70105 12.3026 1.85279 12.6144 2.15626C12.9255 2.45973 13.0811 2.82709 13.0811 3.25834V3.90522C14.4068 4.24063 15.4769 4.94341 16.2915 6.01355C17.1061 7.08369 17.5134 8.31355 17.5134 9.70313V16.1958H19.5019V18.376H3.49774ZM11.4998 21.275C10.9568 21.275 10.4897 21.0833 10.0987 20.7C9.7071 20.3167 9.51128 19.8535 9.51128 19.3104H13.4884C13.4884 19.8535 13.2929 20.3167 12.9019 20.7C12.5102 21.0833 12.0429 21.275 11.4998 21.275ZM7.66649 16.1958H15.3332V9.70313C15.3332 8.64897 14.9578 7.74654 14.2071 6.99584C13.4564 6.24515 12.554 5.8698 11.4998 5.8698C10.4457 5.8698 9.54323 6.24515 8.79253 6.99584C8.04184 7.74654 7.66649 8.64897 7.66649 9.70313V16.1958Z" fill="white"/>
</g>
</svg>
