<svg width="18" height="18" viewBox="0 0 18 18" fill="none" xmlns="http://www.w3.org/2000/svg">
<path d="M9.31571 1.86517C7.77761 1.86699 6.30301 2.4788 5.2154 3.56641C4.1278 4.65402 3.51598 6.12861 3.51417 7.66672C3.51232 8.92367 3.9229 10.1465 4.68291 11.1477C4.68291 11.1477 4.84114 11.356 4.86698 11.386L9.31571 16.6328L13.7666 11.3834C13.7898 11.3555 13.9485 11.1477 13.9485 11.1477L13.949 11.1461C14.7087 10.1454 15.1191 8.92309 15.1173 7.66672C15.1154 6.12861 14.5036 4.65402 13.416 3.56641C12.3284 2.4788 10.8538 1.86699 9.31571 1.86517ZM9.31571 9.77638C8.89846 9.77638 8.49058 9.65265 8.14365 9.42083C7.79672 9.18902 7.52632 8.85954 7.36665 8.47405C7.20697 8.08856 7.1652 7.66438 7.2466 7.25515C7.328 6.84592 7.52892 6.47001 7.82396 6.17497C8.119 5.87993 8.49491 5.67901 8.90414 5.5976C9.31337 5.5162 9.73756 5.55798 10.123 5.71766C10.5085 5.87733 10.838 6.14773 11.0698 6.49466C11.3016 6.84159 11.4254 7.24947 11.4254 7.66672C11.4247 8.22602 11.2022 8.76222 10.8067 9.1577C10.4112 9.55319 9.87502 9.77568 9.31571 9.77638Z" fill="#8F86C8"/>
</svg>
