<svg width="17" height="17" viewBox="0 0 17 17" fill="none" xmlns="http://www.w3.org/2000/svg">
<g clip-path="url(#clip0_2314_1654)">
<path d="M8.87712 1.58221C12.5591 1.58221 15.5438 4.56688 15.5438 8.24888C15.5438 11.9309 12.5591 14.9155 8.87712 14.9155C5.19512 14.9155 2.21045 11.9309 2.21045 8.24888C2.21045 4.56688 5.19512 1.58221 8.87712 1.58221ZM8.87712 2.91555C7.46263 2.91555 6.10607 3.47745 5.10588 4.47764C4.10569 5.47784 3.54378 6.83439 3.54378 8.24888C3.54378 9.66337 4.10569 11.0199 5.10588 12.0201C6.10607 13.0203 7.46263 13.5822 8.87712 13.5822C10.2916 13.5822 11.6482 13.0203 12.6484 12.0201C13.6485 11.0199 14.2104 9.66337 14.2104 8.24888C14.2104 6.83439 13.6485 5.47784 12.6484 4.47764C11.6482 3.47745 10.2916 2.91555 8.87712 2.91555ZM8.87712 4.24888C9.0404 4.2489 9.19801 4.30885 9.32003 4.41736C9.44205 4.52586 9.52001 4.67538 9.53912 4.83755L9.54378 4.91555V7.97288L11.3484 9.77755C11.468 9.89752 11.5374 10.0585 11.5426 10.2278C11.5478 10.3971 11.4883 10.562 11.3763 10.6891C11.2643 10.8161 11.1081 10.8958 10.9395 10.9118C10.7709 10.9279 10.6024 10.8792 10.4684 10.7755L10.4058 10.7202L8.40578 8.72021C8.30217 8.61651 8.23562 8.48155 8.21645 8.33621L8.21045 8.24888V4.91555C8.21045 4.73874 8.28069 4.56917 8.40571 4.44414C8.53074 4.31912 8.7003 4.24888 8.87712 4.24888Z" fill="#8F86C8"/>
</g>
<defs>
<clipPath id="clip0_2314_1654">
<rect width="16" height="16" fill="white" transform="translate(0.877197 0.248901)"/>
</clipPath>
</defs>
</svg>
