<svg width="43" height="43" viewBox="0 0 43 43" fill="none" xmlns="http://www.w3.org/2000/svg">
<rect x="0.554199" y="0.64119" width="42.3587" height="42.3587" rx="13" fill="#E63636"/>
<path d="M28.0875 16.8787H15.3799" stroke="white" stroke-width="1.41196" stroke-linecap="round" stroke-linejoin="round"/>
<path d="M20.3215 20.4086V24.6445" stroke="white" stroke-width="1.41196" stroke-linecap="round" stroke-linejoin="round"/>
<path d="M23.1455 20.4086V24.6445" stroke="white" stroke-width="1.41196" stroke-linecap="round" stroke-linejoin="round"/>
<path d="M26.6755 16.8787V27.6096C26.6755 27.7594 26.6176 27.903 26.5146 28.009C26.4117 28.1149 26.272 28.1744 26.1264 28.1744H17.3408C17.1952 28.1744 17.0555 28.1149 16.9526 28.009C16.8496 27.903 16.7917 27.7594 16.7917 27.6096V16.8787" stroke="white" stroke-width="1.41196" stroke-linecap="round" stroke-linejoin="round"/>
<path d="M24.5575 16.8787V15.8197C24.5575 15.5389 24.4385 15.2695 24.2267 15.0709C24.0148 14.8723 23.7275 14.7608 23.4279 14.7608H20.0392C19.7397 14.7608 19.4523 14.8723 19.2405 15.0709C19.0287 15.2695 18.9097 15.5389 18.9097 15.8197V16.8787" stroke="white" stroke-width="1.41196" stroke-linecap="round" stroke-linejoin="round"/>
</svg>
